<?xml version="1.0" encoding="UTF-8"?>
<svg version="1.1" xmlns="http://www.w3.org/2000/svg" width="24" height="24" viewBox="0 0 24 24">
<path d="M0 0 C1.47906892 -0.02689216 2.95827483 -0.04634621 4.4375 -0.0625 C5.26121094 -0.07410156 6.08492187 -0.08570312 6.93359375 -0.09765625 C9 0 9 0 10 1 C10.3125 4.3125 10.3125 4.3125 10 8 C8.68799596 9.35432675 7.35368596 10.68733482 6 12 C5.19234122 15.64721696 5.19234122 15.64721696 5 19 C1.748419 19.56902668 -0.33262247 19.40186174 -3.1796875 17.6875 C-7.0668952 14.58880062 -8.85575937 13.13589495 -9.5 8.0625 C-9.335 7.051875 -9.17 6.04125 -9 5 C-6.69 5 -4.38 5 -2 5 C-1.34 3.35 -0.68 1.7 0 0 Z " fill="currentColor" transform="translate(12,2)"/>
<path d="M0 0 C1.134375 0.020625 2.26875 0.04125 3.4375 0.0625 C3.4375 1.7125 3.4375 3.3625 3.4375 5.0625 C1.0625 6.125 1.0625 6.125 -1.5625 7.0625 C-2.2225 6.7325 -2.8825 6.4025 -3.5625 6.0625 C-4.25 3.5625 -4.25 3.5625 -4.5625 1.0625 C-3.5625 0.0625 -3.5625 0.0625 0 0 Z " fill="currentColor" fill-opacity="0.8" transform="translate(16.5625,2.9375)"/>
<path d="M0 0 C0.99 0 1.98 0 3 0 C3 0.99 3 1.98 3 3 C3.99 3 4.98 3 6 3 C6 3.99 6 4.98 6 6 C4.02 6 2.04 6 0 6 C0 4.02 0 2.04 0 0 Z " fill="currentColor" fill-opacity="0.6" transform="translate(2,16)"/>
</svg>
