<?xml version="1.0" encoding="UTF-8"?>
<svg version="1.1" xmlns="http://www.w3.org/2000/svg" width="24" height="24">
<path d="M0 0 C2.6015625 -0.29296875 2.6015625 -0.29296875 5.625 -0.1875 C7.12933594 -0.14689453 7.12933594 -0.14689453 8.6640625 -0.10546875 C9.43492188 -0.07066406 10.20578125 -0.03585938 11 0 C11.08086147 1.79093191 11.13912702 3.58289628 11.1875 5.375 C11.23970703 6.87160156 11.23970703 6.87160156 11.29296875 8.3984375 C11.19628906 9.25695313 11.09960938 10.11546875 11 11 C10.01 11.66 9.02 12.32 8 13 C7.42251197 14.96361864 7.42251197 14.96361864 7.3125 17.125 C7.209375 18.40375 7.10625 19.6825 7 21 C-0.75 21.125 -0.75 21.125 -3 20 C-3 18.68 -3 17.36 -3 16 C-3.66 16 -4.32 16 -5 16 C-5 15.34 -5 14.68 -5 14 C-6.32 14 -7.64 14 -9 14 C-10.60725635 10.78548731 -10.05748185 7.56387464 -10 4 C-6.97265625 3.75585938 -6.97265625 3.75585938 -3.9453125 3.51171875 C-1.60480784 3.12606964 -1.60480784 3.12606964 0 0 Z M3 2 C1.68 4.31 0.36 6.62 -1 9 C-0.01 9 0.98 9 2 9 C2.33 9.99 2.66 10.98 3 12 C6.11490087 10.42422186 6.11490087 10.42422186 9 8 C9.50169415 4.83073436 9.50169415 4.83073436 9 2 C7.02 2 5.04 2 3 2 Z M-8 6 C-7.67 7.32 -7.34 8.64 -7 10 C-6.01 9.34 -5.02 8.68 -4 8 C-4 7.34 -4 6.68 -4 6 C-5.32 6 -6.64 6 -8 6 Z M3 15 C2.01 16.485 2.01 16.485 1 18 C2.32 18.33 3.64 18.66 5 19 C5 17.68 5 16.36 5 15 C4.34 15 3.68 15 3 15 Z " fill="currentColor" transform="translate(11,2)"/>
<path d="M0 0 C0.66 0 1.32 0 2 0 C2 0.99 2 1.98 2 3 C2.99 3 3.98 3 5 3 C5 3.66 5 4.32 5 5 C3.35 5 1.7 5 0 5 C0 3.35 0 1.7 0 0 Z " fill="currentColor" transform="translate(2,17)"/>
<path d="M0 0 C1.32 0 2.64 0 4 0 C4 1.32 4 2.64 4 4 C2.68 4 1.36 4 0 4 C0 2.68 0 1.36 0 0 Z " fill="currentColor" transform="translate(14,6)"/>
</svg>
