<?xml version="1.0" encoding="UTF-8"?>
<svg version="1.1" xmlns="http://www.w3.org/2000/svg" width="400" height="400">
<path d="M0 0 C0.6631342 -0.00226556 1.3262684 -0.00453111 2.00949758 -0.00686532 C4.21797389 -0.01316462 6.42638818 -0.01237861 8.63487244 -0.0115509 C10.22368448 -0.01454483 11.81249579 -0.0179479 13.40130615 -0.02172852 C17.70693828 -0.03054633 22.01255053 -0.03290562 26.31819081 -0.0335443 C29.0088053 -0.03425576 31.69941476 -0.03639185 34.390028 -0.03904152 C43.77796118 -0.04828574 53.16588017 -0.05237733 62.55381775 -0.05158997 C71.30391468 -0.05098857 80.05395008 -0.06155488 88.80403143 -0.07733363 C96.32009485 -0.09040409 103.83613814 -0.09577411 111.35221285 -0.09513456 C115.83982187 -0.09487954 120.32737613 -0.09773332 124.81497383 -0.10831261 C129.03307041 -0.11798591 133.25105975 -0.11807807 137.46916008 -0.11079597 C139.01673412 -0.10974936 140.56431483 -0.11211758 142.11187744 -0.11815643 C144.22502061 -0.12586821 146.33779262 -0.12123728 148.45092773 -0.11352539 C150.22429048 -0.11434254 150.22429048 -0.11434254 152.03347874 -0.1151762 C156.27518776 0.22227524 159.07983075 1.23708141 162.34947205 3.94621277 C165.9539674 8.29646578 166.41300899 12.2800417 166.42266846 17.8245697 C166.426494 18.48402722 166.43031955 19.14348473 166.43426102 19.82292581 C166.44455189 22.02523615 166.44060637 24.22728387 166.43663025 26.42961121 C166.44097901 28.01178732 166.44616271 29.59396132 166.45211792 31.1761322 C166.46550447 35.46971566 166.46608676 39.76321107 166.46355462 44.05681133 C166.46248424 47.64503507 166.46737022 51.23324104 166.47216004 54.82146096 C166.48325497 63.29111832 166.48369333 71.76073134 166.47764587 80.23039246 C166.47161119 88.95600063 166.48390426 97.68144734 166.50521594 106.40702796 C166.52285789 113.90700549 166.52882904 121.40693175 166.5255782 128.90692925 C166.52376865 133.38240717 166.52636833 137.85777001 166.54029274 142.33322906 C166.55290799 146.54562967 166.55089218 150.75777974 166.53788185 154.9701767 C166.53552419 156.51123135 166.53822154 158.05230382 166.54650497 159.59333801 C166.60356249 171.03888799 166.09713641 180.08624888 157.78697205 188.50871277 C157.3177533 189.01531433 156.84853455 189.52191589 156.36509705 190.04386902 C153.54338713 193.01367973 150.7372543 195.16317766 147.16197205 197.13371277 C145.98461653 197.95187507 144.81674481 198.78397432 143.66197205 199.63371277 C140.90739633 201.62840553 138.07901725 203.38348565 135.16197205 205.13371277 C133.98946591 205.95880968 132.82320298 206.79282141 131.66197205 207.63371277 C128.90739633 209.62840553 126.07901725 211.38348565 123.16197205 213.13371277 C121.98946591 213.95880968 120.82320298 214.79282141 119.66197205 215.63371277 C116.90739633 217.62840553 114.07901725 219.38348565 111.16197205 221.13371277 C109.98946591 221.95880968 108.82320298 222.79282141 107.66197205 223.63371277 C104.90739633 225.62840553 102.07901725 227.38348565 99.16197205 229.13371277 C97.98946591 229.95880968 96.82320298 230.79282141 95.66197205 231.63371277 C92.90739633 233.62840553 90.07901725 235.38348565 87.16197205 237.13371277 C85.98946591 237.95880968 84.82320298 238.79282141 83.66197205 239.63371277 C80.90739633 241.62840553 78.07901725 243.38348565 75.16197205 245.13371277 C73.3318188 246.45349648 71.51642392 247.7896791 69.7127533 249.14543152 C68.16197205 250.13371277 68.16197205 250.13371277 66.16197205 250.13371277 C66.16473742 251.20135251 66.16473742 251.20135251 66.16755867 252.29056072 C66.2117258 269.60859743 66.24482282 286.92661984 66.26559639 304.24470043 C66.27590932 312.61959035 66.28996999 320.99444268 66.31285095 329.36930847 C66.3327843 336.66876908 66.34568836 343.96820246 66.35014904 351.26768953 C66.35275651 355.13277037 66.35888557 358.99777332 66.37343216 362.86282921 C66.38701519 366.50137304 66.39119323 370.13980694 66.38818741 373.77837372 C66.38899925 375.74909365 66.39975714 377.71980163 66.41081238 379.69049072 C66.40806305 380.86693146 66.40531372 382.04337219 66.40248108 383.25546265 C66.40524646 384.7860999 66.40524646 384.7860999 66.4080677 386.34765911 C66.04999435 390.40141442 64.93936657 393.195478 62.34947205 396.32121277 C57.603741 400.25338992 52.33216805 400.67040478 46.41099548 401.26530457 C45.53520938 401.35586372 44.65942327 401.44642288 43.7570982 401.53972626 C32.16408096 402.68147073 20.55026148 403.35847419 8.91197205 403.82121277 C7.23181314 403.890233 7.23181314 403.890233 5.51771164 403.96064758 C-21.42667936 404.94349871 -44.35509627 404.17750157 -65.18374252 385.5575161 C-69.90885089 381.16031178 -74.27345998 376.48605836 -78.52552795 371.63371277 C-79.12271133 370.95225063 -79.71989471 370.2707885 -80.33517456 369.56867599 C-87.66835999 361.1120568 -94.46821917 352.33673245 -100.83802795 343.13371277 C-99.30515209 339.9105659 -97.69652108 337.75635679 -95.14271545 335.24308777 C-94.06957092 334.17961121 -94.06957092 334.17961121 -92.9747467 333.09465027 C-91.85519592 332.00023621 -91.85519592 332.00023621 -90.71302795 330.88371277 C-89.95892639 330.13863464 -89.20482483 329.39355652 -88.4278717 328.62590027 C-86.56902023 326.79057856 -84.70565791 324.96009367 -82.83802795 323.13371277 C-84.37051053 319.51086791 -86.53816535 317.17566608 -89.3028717 314.40324402 C-90.18523499 313.51830261 -91.06759827 312.63336121 -91.97669983 311.72160339 C-92.90031311 310.80572449 -93.82392639 309.88984558 -94.77552795 308.94621277 C-95.69527405 308.0187323 -96.61502014 307.09125183 -97.56263733 306.13566589 C-98.44628967 305.25459167 -99.32994202 304.37351746 -100.2403717 303.46574402 C-101.45454773 302.25495178 -101.45454773 302.25495178 -102.69325256 301.0196991 C-104.78223756 298.93620549 -104.78223756 298.93620549 -107.83802795 298.13371277 C-108.49802795 299.45371277 -109.15802795 300.77371277 -109.83802795 302.13371277 C-110.49802795 302.13371277 -111.15802795 302.13371277 -111.83802795 302.13371277 C-112.49802795 303.45371277 -113.15802795 304.77371277 -113.83802795 306.13371277 C-114.49802795 306.13371277 -115.15802795 306.13371277 -115.83802795 306.13371277 C-116.49802795 307.45371277 -117.15802795 308.77371277 -117.83802795 310.13371277 C-118.49802795 310.13371277 -119.15802795 310.13371277 -119.83802795 310.13371277 C-120.49802795 311.45371277 -121.15802795 312.77371277 -121.83802795 314.13371277 C-122.49802795 314.13371277 -123.15802795 314.13371277 -123.83802795 314.13371277 C-124.16802795 315.12371277 -124.49802795 316.11371277 -124.83802795 317.13371277 C-126.15802795 316.80371277 -127.47802795 316.47371277 -128.83802795 316.13371277 C-128.83802795 315.47371277 -128.83802795 314.81371277 -128.83802795 314.13371277 C-130.15802795 313.47371277 -131.47802795 312.81371277 -132.83802795 312.13371277 C-132.83802795 311.47371277 -132.83802795 310.81371277 -132.83802795 310.13371277 C-134.15802795 309.47371277 -135.47802795 308.81371277 -136.83802795 308.13371277 C-136.83802795 307.47371277 -136.83802795 306.81371277 -136.83802795 306.13371277 C-138.15802795 305.47371277 -139.47802795 304.81371277 -140.83802795 304.13371277 C-140.83802795 303.47371277 -140.83802795 302.81371277 -140.83802795 302.13371277 C-142.15802795 301.47371277 -143.47802795 300.81371277 -144.83802795 300.13371277 C-144.83802795 299.47371277 -144.83802795 298.81371277 -144.83802795 298.13371277 C-146.15802795 297.47371277 -147.47802795 296.81371277 -148.83802795 296.13371277 C-148.83802795 295.47371277 -148.83802795 294.81371277 -148.83802795 294.13371277 C-149.49802795 294.13371277 -150.15802795 294.13371277 -150.83802795 294.13371277 C-150.27182495 290.35902606 -148.71533814 288.65819384 -146.0216217 286.02433777 C-144.87596741 284.89318542 -144.87596741 284.89318542 -143.70716858 283.73918152 C-142.90472717 282.96187683 -142.10228577 282.18457214 -141.27552795 281.38371277 C-140.06606506 280.19455261 -140.06606506 280.19455261 -138.83216858 278.98136902 C-136.84069018 277.0252423 -134.84255075 275.07645558 -132.83802795 273.13371277 C-134.37720806 269.46619272 -136.59288247 267.14790704 -139.40834045 264.36808777 C-140.75218811 263.03390808 -140.75218811 263.03390808 -142.1231842 261.67277527 C-143.06033264 260.75238464 -143.99748108 259.83199402 -144.96302795 258.88371277 C-145.91791432 257.9388642 -146.87234654 256.99355644 -147.8263092 256.04777527 C-150.15911882 253.73852939 -152.49646882 251.43408074 -154.83802795 249.13371277 C-158.63515303 250.76447807 -160.10902797 252.82957416 -162.4044342 256.25480652 C-164.40904299 258.88210033 -166.80653764 260.8261172 -169.38490295 262.87199402 C-170.97599189 264.09117004 -170.97599189 264.09117004 -171.83802795 266.13371277 C-172.49802795 266.13371277 -173.15802795 266.13371277 -173.83802795 266.13371277 C-174.16802795 267.12371277 -174.49802795 268.11371277 -174.83802795 269.13371277 C-175.49802795 269.13371277 -176.15802795 269.13371277 -176.83802795 269.13371277 C-178.0903028 267.65667065 -179.33969318 266.17543878 -180.5216217 264.64152527 C-181.95566886 262.86608333 -181.95566886 262.86608333 -184.83802795 261.13371277 C-184.83802795 260.14371277 -184.83802795 259.15371277 -184.83802795 258.13371277 C-186.15802795 257.47371277 -187.47802795 256.81371277 -188.83802795 256.13371277 C-188.83802795 255.47371277 -188.83802795 254.81371277 -188.83802795 254.13371277 C-190.15802795 253.47371277 -191.47802795 252.81371277 -192.83802795 252.13371277 C-192.83802795 251.47371277 -192.83802795 250.81371277 -192.83802795 250.13371277 C-194.15802795 249.47371277 -195.47802795 248.81371277 -196.83802795 248.13371277 C-196.83802795 247.47371277 -196.83802795 246.81371277 -196.83802795 246.13371277 C-198.15802795 245.47371277 -199.47802795 244.81371277 -200.83802795 244.13371277 C-200.83802795 243.47371277 -200.83802795 242.81371277 -200.83802795 242.13371277 C-202.15802795 241.47371277 -203.47802795 240.81371277 -204.83802795 240.13371277 C-204.83802795 239.47371277 -204.83802795 238.81371277 -204.83802795 238.13371277 C-206.15802795 237.47371277 -207.47802795 236.81371277 -208.83802795 236.13371277 C-208.83802795 235.47371277 -208.83802795 234.81371277 -208.83802795 234.13371277 C-209.82802795 233.80371277 -210.81802795 233.47371277 -211.83802795 233.13371277 C-213.13490295 231.81340027 -213.13490295 231.81340027 -214.58802795 230.00871277 C-216.99525813 227.02568058 -219.48891215 224.554435 -222.47911072 222.18182373 C-229.38704784 216.47682365 -234.50650613 211.49328571 -235.46809578 202.27543545 C-235.68162269 197.24443411 -235.57850357 192.25421785 -235.40834045 187.22355652 C-235.38792657 185.03981331 -235.37378747 182.85600339 -235.36558533 180.67218018 C-235.32563759 174.96582592 -235.19321407 169.26519683 -235.04286194 163.56083679 C-234.93619865 158.89847698 -234.89733969 154.23667411 -234.86160469 149.5733099 C-234.81723368 143.99804056 -234.74170703 138.4233638 -234.65834045 132.84855652 C-234.64360813 131.79105635 -234.62887581 130.73355618 -234.61369705 129.64401054 C-234.56475081 126.65026041 -234.49455909 123.65783898 -234.41664124 120.66471863 C-234.40386139 119.78413284 -234.39108154 118.90354706 -234.37791443 117.99627686 C-234.22000594 112.98037102 -233.51481755 109.53026728 -230.83802795 105.13371277 C-230.17802795 105.13371277 -229.51802795 105.13371277 -228.83802795 105.13371277 C-228.50802795 104.14371277 -228.17802795 103.15371277 -227.83802795 102.13371277 C-224.20065391 100.19594082 -221.09544813 99.8820307 -217.01792908 99.87542725 C-215.27239243 99.86518524 -215.27239243 99.86518524 -213.49159241 99.85473633 C-212.22388 99.85728928 -210.9561676 99.85984222 -209.65003967 99.86247253 C-208.29457792 99.85808302 -206.93911887 99.85278005 -205.58366394 99.84663391 C-202.67043789 99.83515309 -199.7572844 99.82967593 -196.8440361 99.82875252 C-192.23886767 99.82680976 -187.63384925 99.80874704 -183.0287323 99.78799438 C-171.59390885 99.73884142 -160.15904487 99.70789127 -148.72413635 99.68669128 C-139.83051555 99.67018062 -130.93702381 99.64741462 -122.04348958 99.60367054 C-117.46390082 99.58186278 -112.88455709 99.5738391 -108.30491996 99.57606328 C-105.45963491 99.57439949 -102.61451072 99.56037007 -99.76928329 99.54285049 C-97.81734111 99.53456037 -95.86535352 99.54119254 -93.91340637 99.54821777 C-92.75535492 99.53856995 -91.59730347 99.52892212 -90.40415955 99.51898193 C-89.39575956 99.51697061 -88.38735958 99.51495928 -87.34840202 99.512887 C-84.4326469 99.07248283 -83.60269771 98.44043341 -81.83802795 96.13371277 C-80.96148101 94.6585484 -80.12968081 93.15612211 -79.33802795 91.63371277 C-77.76735901 88.61319558 -76.22815886 86.52384367 -73.83802795 84.13371277 C-72.96148101 82.6585484 -72.12968081 81.15612211 -71.33802795 79.63371277 C-69.76735901 76.61319558 -68.22815886 74.52384367 -65.83802795 72.13371277 C-64.96148101 70.6585484 -64.12968081 69.15612211 -63.33802795 67.63371277 C-61.76735901 64.61319558 -60.22815886 62.52384367 -57.83802795 60.13371277 C-56.96148101 58.6585484 -56.12968081 57.15612211 -55.33802795 55.63371277 C-53.76735901 52.61319558 -52.22815886 50.52384367 -49.83802795 48.13371277 C-48.96148101 46.6585484 -48.12968081 45.15612211 -47.33802795 43.63371277 C-45.76735901 40.61319558 -44.22815886 38.52384367 -41.83802795 36.13371277 C-40.96148101 34.6585484 -40.12968081 33.15612211 -39.33802795 31.63371277 C-37.76808789 28.61459727 -36.23088061 26.52030142 -33.83802795 24.13371277 C-33.0036161 22.72059592 -32.21402797 21.28037052 -31.46302795 19.82121277 C-29.27424603 15.77229486 -26.92820543 12.54083153 -23.83802795 9.13371277 C-22.90990295 8.08183777 -22.90990295 8.08183777 -21.96302795 7.00871277 C-15.27401338 1.10664109 -8.83006755 0.01251275 0 0 Z " fill="#3F73E3" transform="translate(233.83802795410156,-0.1337127685546875)"/>
<path d="M0 0 C0 3.69411888 -0.85743702 4.35277155 -3.1875 7.125 C-5.60744583 10.12689673 -7.69155884 13.03230811 -9.5 16.4375 C-11.70304595 20.57979676 -14.25949511 24.32579316 -16.984375 28.140625 C-19.36205109 31.51360736 -21.65441646 34.93758248 -23.9375 38.375 C-24.36490479 39.01816162 -24.79230957 39.66132324 -25.23266602 40.32397461 C-26.08464542 41.60687359 -26.93629407 42.8899923 -27.78759766 44.17333984 C-29.56252871 46.84753117 -31.34381465 49.51747167 -33.125 52.1875 C-33.76566406 53.14914063 -34.40632813 54.11078125 -35.06640625 55.1015625 C-36.38432982 57.07711662 -37.70474652 59.05100926 -39.02734375 61.0234375 C-42.26368888 65.85621391 -45.46174583 70.70393702 -48.5625 75.625 C-51.32580734 79.99867013 -54.24456463 84.23110567 -57.23828125 88.44921875 C-59.72092974 92.04382954 -62.02549116 95.74285803 -64.32421875 99.45703125 C-66.07161504 102.10867457 -68.01585278 104.52284675 -70 107 C-70.69989084 108.14704332 -71.37232497 109.31190084 -72 110.5 C-73.71714611 113.61232732 -75.77745549 116.22181936 -78 119 C-78.70675277 120.17614328 -79.39353202 121.36446229 -80.0625 122.5625 C-82 126 -82 126 -83.75 128.25 C-85.2906191 130.04843652 -85.2906191 130.04843652 -85 133 C-83.59698376 134.20258534 -82.18556412 135.39723926 -80.7265625 136.53125 C-78.27045238 138.62061064 -76.31964557 141.04559956 -74.296875 143.546875 C-73.04219297 145.13287611 -73.04219297 145.13287611 -71 146 C-71.42156693 150.91828084 -73.47007581 152.70540409 -77 156 C-78.03476161 157.17538306 -79.05522158 158.36348076 -80.0625 159.5625 C-82.27157231 162.1634129 -84.44917688 164.72247935 -87 167 C-87.66 167 -88.32 167 -89 167 C-89.33 167.99 -89.66 168.98 -90 170 C-90.66 170 -91.32 170 -92 170 C-93.25227484 168.52295788 -94.50166522 167.04172601 -95.68359375 165.5078125 C-97.11764091 163.73237056 -97.11764091 163.73237056 -100 162 C-100 161.01 -100 160.02 -100 159 C-101.32 158.34 -102.64 157.68 -104 157 C-104 156.34 -104 155.68 -104 155 C-105.32 154.34 -106.64 153.68 -108 153 C-108 152.34 -108 151.68 -108 151 C-109.32 150.34 -110.64 149.68 -112 149 C-112 148.34 -112 147.68 -112 147 C-113.32 146.34 -114.64 145.68 -116 145 C-116 144.34 -116 143.68 -116 143 C-117.32 142.34 -118.64 141.68 -120 141 C-120 140.34 -120 139.68 -120 139 C-121.32 138.34 -122.64 137.68 -124 137 C-124 136.34 -124 135.68 -124 135 C-124.99 134.67 -125.98 134.34 -127 134 C-128.296875 132.6796875 -128.296875 132.6796875 -129.75 130.875 C-132.15723017 127.89196781 -134.6508842 125.42072223 -137.64108276 123.04811096 C-144.54901988 117.34311089 -149.66847817 112.35957294 -150.63006783 103.14172268 C-150.84359473 98.11072134 -150.74047561 93.12050508 -150.5703125 88.08984375 C-150.54989861 85.90610055 -150.53575952 83.72229062 -150.52755737 81.53846741 C-150.48760964 75.83211315 -150.35518612 70.13148406 -150.20483398 64.42712402 C-150.0981707 59.76476421 -150.05931174 55.10296134 -150.02357674 50.43959713 C-149.97920572 44.86432779 -149.90367908 39.28965103 -149.8203125 33.71484375 C-149.80558018 32.65734358 -149.79084785 31.59984341 -149.7756691 30.51029778 C-149.72672286 27.51654764 -149.65653114 24.52412621 -149.57861328 21.53100586 C-149.56583344 20.65042007 -149.55305359 19.76983429 -149.53988647 18.86256409 C-149.38197799 13.84665825 -148.6767896 10.39655451 -146 6 C-145.34 6 -144.68 6 -144 6 C-143.67 5.01 -143.34 4.02 -143 3 C-139.36105582 1.06236784 -136.23882199 0.74379703 -132.15971375 0.7215271 C-130.99168716 0.71036362 -129.82366058 0.69920013 -128.62023926 0.68769836 C-126.71160095 0.68445808 -126.71160095 0.68445808 -124.7644043 0.68115234 C-123.40407213 0.6718491 -122.04374566 0.66167983 -120.6834259 0.65071106 C-116.99790116 0.62344158 -113.31241458 0.60827075 -109.62681556 0.59528303 C-105.77239089 0.57963911 -101.918044 0.55285291 -98.06367493 0.5272522 C-90.76818146 0.48048673 -83.47267332 0.44373183 -76.17710668 0.41057932 C-67.86996649 0.37234216 -59.56290445 0.32293617 -51.25583017 0.27259517 C-34.17061 0.16930852 -17.08534458 0.08003751 0 0 Z " fill="#2B5BC4" transform="translate(149,99)"/>
<path d="M0 0 C0.04671904 18.03698531 0.08198837 36.07395492 0.10362434 54.11098766 C0.11393728 62.48587758 0.12799794 70.86072991 0.15087891 79.2355957 C0.17081225 86.53505631 0.18371632 93.83448969 0.18817699 101.13397676 C0.19078446 104.9990576 0.19691353 108.86406056 0.21146011 112.72911644 C0.22504314 116.36766027 0.22922119 120.00609417 0.22621536 123.64466095 C0.22702721 125.61538088 0.23778509 127.58608886 0.24884033 129.55677795 C0.246091 130.73321869 0.24334167 131.90965942 0.24050903 133.12174988 C0.24235262 134.14217471 0.24419621 135.16259954 0.24609566 136.21394634 C-0.1119777 140.26770165 -1.22260547 143.06176523 -3.8125 146.1875 C-8.55823104 150.11967715 -13.82980399 150.53669201 -19.75097656 151.1315918 C-21.06465572 151.26743053 -21.06465572 151.26743053 -22.40487385 151.40601349 C-33.99789109 152.54775796 -45.61171057 153.22476142 -57.25 153.6875 C-58.37010593 153.73351349 -59.49021187 153.77952698 -60.64426041 153.82693481 C-87.5886514 154.80978594 -110.51706831 154.0437888 -131.34571457 135.42380333 C-136.07082294 131.02659902 -140.43543202 126.35234559 -144.6875 121.5 C-145.58327507 120.4778068 -145.58327507 120.4778068 -146.49714661 119.43496323 C-153.83033204 110.97834403 -160.63019121 102.20301968 -167 93 C-165.48094837 89.8096294 -163.9034804 87.66724379 -161.375 85.1796875 C-160.66859375 84.47972656 -159.9621875 83.77976562 -159.234375 83.05859375 C-158.49703125 82.33800781 -157.7596875 81.61742187 -157 80.875 C-155.89398438 79.78251953 -155.89398438 79.78251953 -154.765625 78.66796875 C-153.4006897 77.32046875 -152.03371267 75.97503157 -150.6640625 74.63232422 C-149.43633482 73.42801271 -148.21607596 72.21607596 -147 71 C-142 76 -137 81 -132 86 C-131.2575 85.690625 -130.515 85.38125 -129.75 85.0625 C-127.49307824 84.1905075 -125.3549847 83.52332993 -123 83 C-123 82.34 -123 81.68 -123 81 C-121.13671875 79.52734375 -121.13671875 79.52734375 -118.6875 77.9375 C-117.88699219 77.41027344 -117.08648437 76.88304687 -116.26171875 76.33984375 C-114 75 -114 75 -111 74 C-109.99719497 73.00281292 -108.99756988 72.00242423 -108 71 C-106.46112957 70.02419761 -104.89565824 69.08967652 -103.3125 68.1875 C-99.22945583 65.79481231 -95.47676461 63.19381228 -91.734375 60.3046875 C-89.58727524 58.68952687 -87.31307256 57.36411971 -85 56 C-83.8271145 55.17544244 -82.66090368 54.3413431 -81.5 53.5 C-78.74542428 51.50530724 -75.91704521 49.75022712 -73 48 C-71.82749386 47.17490309 -70.66123093 46.34089136 -69.5 45.5 C-66.74542428 43.50530724 -63.91704521 41.75022712 -61 40 C-59.86984004 39.19469278 -58.74525454 38.38153054 -57.625 37.5625 C-55.27553385 35.85658327 -52.91644492 34.34081959 -50.375 32.9375 C-47.04371041 31.13951798 -47.04371041 31.13951798 -44.5 29 C-41.99631945 26.99705556 -39.48236597 25.54199502 -36.6875 24 C-34.79623867 22.9322005 -34.79623867 22.9322005 -32.5 21 C-29.99631945 18.99705556 -27.48236597 17.54199502 -24.6875 16 C-22.79623867 14.9322005 -22.79623867 14.9322005 -20.5 13 C-18.49815867 11.39852694 -16.7205524 10.22513236 -14.5 9 C-11.39031404 7.28361489 -8.75563069 5.24801451 -6 3 C-1.28571429 0 -1.28571429 0 0 0 Z " fill="#154BBE" transform="translate(300,250)"/>
<path d="M0 0 C0.67804688 0.47050781 1.35609375 0.94101562 2.0546875 1.42578125 C2.0546875 2.08578125 2.0546875 2.74578125 2.0546875 3.42578125 C2.6115625 3.65265625 3.1684375 3.87953125 3.7421875 4.11328125 C13.22101572 9.49315673 18.09984733 20.42478374 21.0546875 30.42578125 C24.28854942 43.49233142 22.37892746 55.75026132 16.0546875 67.42578125 C8.33077613 79.57278717 -3.12385798 87.90861687 -16.93359375 91.6171875 C-30.98271502 94.7265045 -43.00467833 92.16637586 -55.33984375 85.04296875 C-64.2096146 78.91985278 -70.89041912 70.34103148 -74.9453125 60.42578125 C-75.3326355 59.56339844 -75.3326355 59.56339844 -75.7277832 58.68359375 C-77.99762906 53.29683407 -78.4530875 48.48796998 -78.3828125 42.67578125 C-78.37523926 41.79688232 -78.36766602 40.9179834 -78.35986328 40.01245117 C-78.07729817 28.80575383 -74.67465122 20.32645327 -67.9453125 11.42578125 C-67.43097656 10.68328125 -66.91664063 9.94078125 -66.38671875 9.17578125 C-65.91105469 8.59828125 -65.43539063 8.02078125 -64.9453125 7.42578125 C-64.2853125 7.42578125 -63.6253125 7.42578125 -62.9453125 7.42578125 C-62.6153125 6.43578125 -62.2853125 5.44578125 -61.9453125 4.42578125 C-56.63711847 -0.01746152 -50.37454723 -3.10575166 -43.9453125 -5.57421875 C-43.04941406 -5.93 -42.15351563 -6.28578125 -41.23046875 -6.65234375 C-26.83866432 -10.69094761 -12.7884409 -6.83520117 0 0 Z " fill="#A0BBF3" transform="translate(327.9453125,57.57421875)"/>
<path d="M0 0 C5.44713342 2.29178655 9.208343 6.79861437 13.32885742 10.90332031 C14.81315947 12.37565416 16.31510259 13.8283063 17.81835938 15.28125 C18.75099609 16.20679688 19.68363281 17.13234375 20.64453125 18.0859375 C21.50409424 18.9320459 22.36365723 19.7781543 23.24926758 20.64990234 C25 23 25 23 24.86718559 24.86698914 C23.7087347 27.71642339 22.05712187 29.30832445 19.87576294 31.47827148 C18.98682343 32.36988983 18.09788391 33.26150818 17.18200684 34.18014526 C16.18934289 35.16059702 15.19654036 36.14090848 14.20361328 37.12109375 C13.16336053 38.15886312 12.12377496 39.19730164 11.08480835 40.23635864 C8.84597464 42.47248615 6.60246075 44.70377102 4.35519791 46.931427 C0.80161449 50.4540079 -2.74158285 53.98691259 -6.28347778 57.52124023 C-11.88753022 63.11079796 -17.49875788 68.69309082 -23.11294854 74.2724638 C-33.16459057 84.26222599 -43.20413991 94.26413413 -53.2409116 104.26883411 C-56.7637176 107.77981076 -60.28967652 111.28758169 -63.81830192 114.79270935 C-66.01381809 116.97438662 -68.20733853 119.1580627 -70.40041733 121.34218979 C-71.4173951 122.35410348 -72.43525027 123.36513627 -73.45404816 124.37521744 C-74.84560716 125.75506224 -76.23378631 127.1383131 -77.62179565 128.52172852 C-78.39941191 129.29452652 -79.17702816 130.06732452 -79.97820854 130.86354065 C-82.03504483 132.94333247 -82.03504483 132.94333247 -83.64863777 135.27989197 C-84.09458731 135.84752762 -84.54053684 136.41516327 -85 137 C-85.66 137 -86.32 137 -87 137 C-87.66 138.32 -88.32 139.64 -89 141 C-89.66 141 -90.32 141 -91 141 C-91.66 142.32 -92.32 143.64 -93 145 C-93.66 145 -94.32 145 -95 145 C-95.99 146.98 -95.99 146.98 -97 149 C-97.66 149 -98.32 149 -99 149 C-99.33 149.99 -99.66 150.98 -100 152 C-101.32 151.67 -102.64 151.34 -104 151 C-104 150.34 -104 149.68 -104 149 C-105.32 148.34 -106.64 147.68 -108 147 C-108 146.34 -108 145.68 -108 145 C-109.32 144.34 -110.64 143.68 -112 143 C-112 142.34 -112 141.68 -112 141 C-113.32 140.34 -114.64 139.68 -116 139 C-116 138.34 -116 137.68 -116 137 C-117.32 136.34 -118.64 135.68 -120 135 C-120 134.34 -120 133.68 -120 133 C-121.32 132.34 -122.64 131.68 -124 131 C-124 130.34 -124 129.68 -124 129 C-124.66 129 -125.32 129 -126 129 C-125.43006922 125.25271826 -123.91151825 123.54770247 -121.24609375 120.91796875 C-120.0869043 119.76651367 -120.0869043 119.76651367 -118.90429688 118.59179688 C-118.09025391 117.79837891 -117.27621094 117.00496094 -116.4375 116.1875 C-115.25704102 115.01477539 -115.25704102 115.01477539 -114.05273438 113.81835938 C-110.60767562 110.41874245 -107.13580701 107.1085905 -103.45898438 103.96096802 C-98.46482998 99.59715482 -93.79420122 94.93429361 -89.11157227 90.2409668 C-88.14671558 89.27746825 -87.18164697 88.31418189 -86.21638489 87.35108948 C-83.61950571 84.75873178 -81.0257542 82.1632665 -78.43272901 79.56705451 C-75.71210419 76.84388297 -72.98902349 74.12316894 -70.26634216 71.40205383 C-65.70286284 66.84038762 -61.14148268 62.27663037 -56.58129883 57.71166992 C-51.30711731 52.43202783 -46.02931663 47.15602417 -40.74966007 41.88185757 C-36.20925176 37.34598155 -31.67078779 32.80816699 -27.13395542 28.26871425 C-24.42714069 25.56033991 -21.71965326 22.85264735 -19.0104084 20.14670372 C-16.46937878 17.60855514 -13.93079334 15.0679874 -11.3941021 12.52550316 C-10.01598932 11.14543122 -8.63540485 9.76782886 -7.25476074 8.39028931 C-6.44036026 7.573069 -5.62595978 6.75584869 -4.78688049 5.91386414 C-3.71982046 4.84623856 -3.71982046 4.84623856 -2.63120365 3.75704479 C-0.92513855 2.08427679 -0.92513855 2.08427679 0 0 Z " fill="#5A8AF1" transform="translate(209,165)"/>
<path d="M0 0 C11.22 0 22.44 0 34 0 C34 21.78 34 43.56 34 66 C55.78 66 77.56 66 100 66 C100 77.22 100 88.44 100 100 C67 100 34 100 0 100 C0 67 0 34 0 0 Z " fill="#92B0F0" transform="translate(0,300)"/>
<path d="M0 0 C3.86328627 1.5847358 6.28876923 4.05956887 9.203125 7.0078125 C9.6857782 7.49329559 10.1684314 7.97877869 10.66571045 8.47897339 C12.19858562 10.02299866 13.72434004 11.57384824 15.25 13.125 C16.29120361 14.17624009 17.33286541 15.22702657 18.375 16.27734375 C20.92199464 18.84633004 23.46265177 21.42148161 26 24 C24.7260411 26.03833424 23.38938077 28.03852126 22 30 C21.34 30 20.68 30 20 30 C19.34 31.32 18.68 32.64 18 34 C17.34 34 16.68 34 16 34 C15.34 35.32 14.68 36.64 14 38 C13.34 38 12.68 38 12 38 C11.34 39.32 10.68 40.64 10 42 C9.34 42 8.68 42 8 42 C7.67 42.99 7.34 43.98 7 45 C5.68 44.67 4.36 44.34 3 44 C3 43.34 3 42.68 3 42 C1.68 41.34 0.36 40.68 -1 40 C-1 39.34 -1 38.68 -1 38 C-2.32 37.34 -3.64 36.68 -5 36 C-5 35.34 -5 34.68 -5 34 C-6.32 33.34 -7.64 32.68 -9 32 C-9 31.34 -9 30.68 -9 30 C-10.32 29.34 -11.64 28.68 -13 28 C-13 27.34 -13 26.68 -13 26 C-14.32 25.34 -15.64 24.68 -17 24 C-17 23.34 -17 22.68 -17 22 C-17.66 22 -18.32 22 -19 22 C-18.44387545 18.11863416 -16.72326862 16.37243082 -13.96484375 13.671875 C-12.75151367 12.47304688 -12.75151367 12.47304688 -11.51367188 11.25 C-10.66353516 10.425 -9.81339844 9.6 -8.9375 8.75 C-8.08349609 7.90953125 -7.22949219 7.0690625 -6.34960938 6.203125 C-4.23964588 4.12852403 -2.12300292 2.06124168 0 0 Z " fill="#789DF0" transform="translate(102,272)"/>
</svg>
